<?xml version="1.0" encoding="UTF-8"?>
<svg id="Layer_1" xmlns="http://www.w3.org/2000/svg" version="1.1" viewBox="0 0 272.88 38.73">
  <!-- Generator: Adobe Illustrator 29.6.1, SVG Export Plug-In . SVG Version: 2.1.1 Build 9)  -->
  <defs>
    <style>
      .st0, .st1 {
        fill: #11afff;
      }

      .st1 {
        display: none;
      }

      .st2 {
        fill: #024d93;
      }
    </style>
  </defs>
  <path class="st1" d="M76.56,8.05h2.58c.23,0,.43.03.62.1.19.07.34.17.47.29.13.12.22.27.29.46.07.18.1.37.1.58s-.03.39-.09.54c-.05.14-.13.26-.22.36-.09.1-.2.17-.32.22s-.24.07-.37.08v.05c.12,0,.25.02.39.07.14.05.27.13.39.23.12.1.22.23.3.4.08.16.12.36.12.6,0,.22-.04.43-.11.63-.07.19-.17.36-.3.5s-.28.26-.46.34-.37.12-.58.12h-2.83v-5.58h.02ZM77.62,12.73h1.47c.2,0,.36-.05.47-.15.11-.11.17-.26.17-.46v-.27c0-.2-.06-.35-.17-.46s-.27-.16-.47-.16h-1.47v1.5ZM77.62,10.37h1.3c.19,0,.34-.05.45-.15.11-.11.16-.25.16-.44v-.25c0-.19-.05-.33-.16-.43-.11-.11-.26-.16-.45-.16h-1.3s0,1.43,0,1.43ZM81.95,13.63v-5.58h3.68v.94h-2.62v1.35h2.32v.94h-2.32v1.42h2.62v.94h-3.68ZM88.56,13.73c-.48,0-.89-.09-1.22-.26s-.62-.39-.86-.67l.71-.69c.19.22.41.39.64.51.24.12.5.18.79.18.33,0,.57-.07.74-.21s.25-.34.25-.58c0-.19-.05-.34-.16-.46s-.31-.2-.6-.26l-.53-.08c-1.11-.18-1.67-.72-1.67-1.62,0-.25.05-.48.14-.68.1-.2.23-.38.41-.52s.39-.25.63-.33c.25-.08.53-.12.85-.12.42,0,.79.07,1.1.21s.58.34.81.62l-.72.68c-.14-.17-.31-.31-.5-.42-.2-.11-.45-.16-.74-.16s-.53.06-.69.18c-.15.11-.22.27-.22.48s.06.37.18.47.32.18.59.22l.52.1c.57.1.98.28,1.25.54s.41.62.41,1.08c0,.27-.05.51-.14.73-.09.21-.23.4-.41.56-.18.15-.39.27-.66.36-.26.09-.55.13-.89.13h0ZM93.83,8.98v4.65h-1.06v-4.65h-1.58v-.94h4.22v.94h-1.58ZM98.33,13.63v-5.58h2.51c.26,0,.49.04.69.13.21.08.38.2.53.35.14.15.25.33.33.54s.11.45.11.7-.04.5-.11.71-.18.39-.33.54c-.14.15-.32.27-.53.35-.2.08-.43.12-.69.12h-1.46v2.13h-1.06,0ZM99.38,10.59h1.36c.2,0,.36-.05.48-.16s.18-.27.18-.47v-.37c0-.2-.06-.36-.18-.46-.12-.11-.28-.16-.48-.16h-1.36v1.62ZM104.59,13.63h-1.06v-5.58h2.52c.26,0,.49.04.69.12.2.08.37.2.51.35.14.15.25.33.33.54s.12.45.12.71c0,.38-.09.71-.26.99-.17.28-.43.47-.78.59l1.14,2.27h-1.18l-1.04-2.15h-1v2.15h0ZM105.95,10.59c.2,0,.36-.05.48-.16s.18-.27.18-.47v-.37c0-.2-.06-.36-.18-.46-.12-.11-.28-.16-.48-.16h-1.36v1.62h1.36ZM111.04,13.73c-.37,0-.7-.06-1-.18s-.56-.31-.77-.55c-.21-.25-.37-.55-.49-.9-.12-.36-.18-.77-.18-1.25s.06-.88.18-1.24.28-.67.49-.91c.21-.25.47-.43.77-.55.3-.12.63-.18,1-.18s.7.06,1,.18.55.31.77.55c.21.25.38.55.49.91.12.36.18.77.18,1.24s-.06.89-.18,1.25c-.11.36-.28.66-.49.9-.21.25-.47.43-.77.55-.3.12-.63.18-1,.18ZM111.04,12.79c.4,0,.72-.13.95-.4.24-.27.36-.64.36-1.12v-.86c0-.48-.12-.85-.36-1.12-.24-.27-.55-.4-.95-.4s-.72.13-.96.4c-.24.27-.35.64-.35,1.12v.86c0,.48.12.85.35,1.12.24.27.56.4.96.4ZM115.72,13.63l-1.82-5.58h1.08l.86,2.72.5,1.86h.02l.49-1.86.86-2.72h1.05l-1.82,5.58h-1.22ZM119.37,13.63v-.85h.74v-3.89h-.74v-.85h2.54v.85h-.74v3.89h.74v.85h-2.54ZM123.06,8.05h2.03c.36,0,.69.06.98.18.3.12.55.29.76.53.21.23.38.52.49.87.12.35.18.75.18,1.22s-.06.87-.18,1.22c-.11.35-.28.64-.49.87s-.46.4-.76.52c-.29.12-.62.18-.98.18h-2.03v-5.58h0ZM125.1,12.69c.4,0,.71-.11.94-.34.24-.23.35-.59.35-1.07v-.88c0-.48-.12-.83-.35-1.06-.23-.23-.54-.35-.94-.35h-.98v3.71h.98ZM128.66,13.63v-5.58h3.68v.94h-2.62v1.35h2.32v.94h-2.32v1.42h2.62v.94h-3.68ZM134.59,13.63h-1.06v-5.58h2.52c.26,0,.49.04.69.12s.37.2.51.35c.14.15.25.33.33.54s.12.45.12.71c0,.38-.09.71-.26.99s-.43.47-.78.59l1.14,2.27h-1.18l-1.04-2.15h-1v2.15h0ZM135.95,10.59c.2,0,.36-.05.48-.16s.18-.27.18-.47v-.37c0-.2-.06-.36-.18-.46-.12-.11-.28-.16-.48-.16h-1.36v1.62h1.36Z"/>
  <path class="st1" d="M79.77,22.77h-.03c-.05.27-.2.5-.46.69-.25.18-.59.27-1.01.27-.33,0-.64-.06-.92-.18s-.52-.3-.73-.54c-.2-.25-.36-.55-.48-.9-.12-.36-.18-.77-.18-1.24s.06-.88.18-1.24.29-.67.51-.91c.22-.25.48-.43.78-.56.3-.13.64-.19,1.02-.19.5,0,.93.11,1.28.33s.63.53.83.94l-.86.5c-.1-.24-.25-.44-.46-.6-.2-.16-.46-.24-.8-.24-.42,0-.75.13-1,.38s-.37.62-.37,1.12v.9c0,.49.13.86.38,1.12s.59.38,1.01.38c.17,0,.32-.02.46-.06.14-.04.27-.1.38-.18s.19-.18.26-.3c.06-.12.1-.26.1-.42v-.36h-1.1v-.89h2.11v3.04h-.91v-.86h.01ZM81.98,23.63v-5.58h1.06v4.65h2.2v.94h-3.26,0ZM88.13,23.73c-.37,0-.7-.06-1-.18s-.55-.31-.77-.55c-.21-.25-.37-.55-.49-.9-.12-.36-.18-.77-.18-1.25s.06-.88.18-1.24.28-.67.49-.91c.21-.25.47-.43.77-.55s.63-.18,1-.18.7.06,1,.18.55.31.77.55c.21.25.38.55.49.91.12.36.18.77.18,1.24s-.06.89-.18,1.25c-.11.36-.27.66-.49.9-.21.25-.47.43-.77.55s-.63.18-1,.18ZM88.13,22.79c.4,0,.72-.13.95-.4.24-.27.36-.64.36-1.12v-.86c0-.48-.12-.85-.36-1.12-.23-.27-.55-.4-.95-.4s-.72.13-.96.4c-.23.27-.35.64-.35,1.12v.86c0,.48.12.85.35,1.12.24.27.56.4.96.4ZM91.71,18.05h2.58c.23,0,.43.03.62.1s.34.17.47.29c.13.12.22.27.29.46.07.18.1.37.1.58s-.03.39-.09.54c-.05.14-.13.26-.22.36-.09.1-.2.17-.32.22s-.24.07-.37.08v.05c.12,0,.25.02.39.07s.27.13.39.23.22.23.3.4c.08.16.12.36.12.6,0,.22-.04.43-.11.63-.07.19-.17.36-.3.5-.13.14-.28.26-.46.34s-.37.12-.58.12h-2.83v-5.58h.02ZM92.77,22.73h1.47c.2,0,.36-.05.47-.15.11-.11.17-.26.17-.46v-.27c0-.2-.06-.35-.17-.46-.11-.11-.27-.16-.47-.16h-1.47s0,1.5,0,1.5ZM92.77,20.37h1.3c.19,0,.34-.05.45-.15.11-.11.16-.25.16-.44v-.25c0-.19-.05-.33-.16-.43-.11-.11-.26-.16-.45-.16h-1.3v1.43ZM100.44,23.63l-.45-1.42h-1.98l-.44,1.42h-1.07l1.87-5.58h1.31l1.86,5.58h-1.1ZM99.02,19.01h-.04l-.71,2.3h1.47l-.72-2.3ZM102.44,23.63v-5.58h1.06v4.65h2.2v.94h-3.26,0ZM110.86,18.98v4.65h-1.06v-4.65h-1.58v-.94h4.22v.94h-1.58ZM114.44,23.63h-1.06v-5.58h2.52c.26,0,.48.04.69.12s.37.2.51.35.25.33.33.54c.08.21.12.45.12.71,0,.38-.09.71-.26.99-.17.28-.43.47-.78.59l1.14,2.27h-1.18l-1.04-2.15h-1v2.15h0ZM115.8,20.59c.2,0,.36-.05.48-.16s.18-.27.18-.47v-.37c0-.2-.06-.36-.18-.46-.12-.11-.28-.16-.48-.16h-1.36v1.62s1.36,0,1.36,0ZM122.23,23.63l-.45-1.42h-1.98l-.44,1.42h-1.07l1.87-5.58h1.31l1.86,5.58h-1.1ZM120.81,19.01h-.04l-.71,2.3h1.47l-.72-2.3ZM124.23,18.05h2.03c.36,0,.69.06.98.18.3.12.55.29.76.53.21.23.38.52.49.87.12.35.18.75.18,1.22s-.06.87-.18,1.22c-.11.35-.28.64-.49.87-.21.23-.46.4-.76.52-.29.12-.62.18-.98.18h-2.03v-5.58h0ZM126.26,22.69c.39,0,.71-.11.94-.34s.35-.59.35-1.07v-.88c0-.48-.12-.83-.35-1.06-.23-.23-.54-.35-.94-.35h-.98v3.71h.98ZM129.6,23.63v-.85h.74v-3.89h-.74v-.85h2.54v.85h-.74v3.89h.74v.85h-2.54ZM134.89,20.77l-.58-1.16h-.02v4.02h-1v-5.58h1.16l1.68,2.86.58,1.16h.02v-4.02h1v5.58h-1.16l-1.68-2.86ZM142.68,22.77h-.03c-.05.27-.2.5-.46.69-.25.18-.59.27-1.01.27-.33,0-.64-.06-.92-.18s-.52-.3-.73-.54c-.2-.25-.36-.55-.48-.9-.12-.36-.18-.77-.18-1.24s.06-.88.18-1.24.29-.67.51-.91c.22-.25.48-.43.78-.56s.64-.19,1.02-.19c.5,0,.93.11,1.28.33s.63.53.83.94l-.86.5c-.1-.24-.25-.44-.46-.6-.2-.16-.46-.24-.8-.24-.42,0-.75.13-1,.38-.24.25-.37.62-.37,1.12v.9c0,.49.12.86.38,1.12.25.26.59.38,1.01.38.16,0,.32-.02.46-.06.14-.04.27-.1.38-.18s.19-.18.26-.3.1-.26.1-.42v-.36h-1.1v-.89h2.11v3.04h-.91v-.86h0Z"/>
  <path class="st1" d="M17.71,40.13l-.56-1.65h-2.26l-.56,1.65h-.68l1.95-5.58h.86l1.95,5.58s-.7,0-.7,0ZM16.04,35.17h-.04l-.94,2.72h1.93l-.94-2.72h0ZM19.42,34.55h1.87c.35,0,.66.06.94.18s.52.29.72.53c.2.23.36.52.46.87.11.35.16.75.16,1.22s-.05.87-.16,1.22c-.11.35-.26.64-.46.87-.2.23-.44.4-.72.52-.28.12-.6.18-.94.18h-1.87v-5.58h0ZM21.3,39.54c.23,0,.44-.04.63-.11.19-.08.36-.19.5-.34s.25-.33.32-.54c.08-.22.12-.47.12-.74v-.91c0-.28-.04-.52-.12-.74-.07-.22-.18-.4-.32-.55-.14-.15-.3-.26-.5-.34-.19-.08-.4-.12-.63-.12h-1.2v4.4h1.2ZM26.05,40.13l-1.86-5.58h.72l.92,2.82.62,2.1h.04l.63-2.1.93-2.82h.7l-1.88,5.58s-.82,0-.82,0ZM35.83,36.72l-.67-1.24h-.02v4.65h-.66v-5.58h.78l2.04,3.41.67,1.24h.02v-4.65h.66v5.58h-.78s-2.04-3.41-2.04-3.41ZM41.92,40.13v-.56h.78v-4.46h-.78v-.56h2.24v.56h-.78v4.46h.78v.56h-2.24ZM45.4,40.13v-4.13h.64v.67h.03c.1-.23.24-.42.42-.56.19-.14.43-.21.74-.21.43,0,.76.14,1.01.42.25.27.38.66.38,1.16v2.65h-.64v-2.54c0-.74-.31-1.11-.94-1.11-.13,0-.25.02-.38.05-.12.03-.22.08-.32.14-.1.06-.17.15-.23.25-.05.1-.08.21-.08.34v2.86h-.64.01ZM50.94,40.13c-.22,0-.39-.06-.51-.18-.11-.13-.17-.29-.17-.5v-2.89h-.68v-.56h.38c.14,0,.23-.03.28-.08.05-.06.08-.16.08-.3v-.77h.58v1.14h.9v.56h-.9v3.01h.84v.56h-.8ZM54.43,40.23c-.28,0-.54-.05-.77-.15-.22-.1-.42-.25-.58-.43-.16-.19-.29-.42-.38-.68-.09-.27-.13-.57-.13-.9s.04-.62.13-.89.22-.49.38-.68c.17-.19.36-.34.58-.44.23-.1.49-.15.77-.15s.53.05.74.15c.22.1.41.24.56.42.15.18.27.39.35.63.09.25.13.51.13.81v.3h-2.97v.19c0,.18.03.34.08.5.06.15.14.28.24.39.11.11.23.2.38.26.15.06.33.1.52.1.26,0,.49-.06.68-.18.2-.12.35-.3.46-.53l.46.33c-.13.28-.34.51-.62.69-.28.17-.62.26-1.01.26ZM54.43,36.44c-.18,0-.34.03-.48.1-.14.06-.27.14-.38.26-.1.11-.18.25-.24.4s-.09.31-.09.5v.06h2.28v-.09c0-.37-.1-.66-.3-.88s-.46-.34-.79-.34h0ZM57.35,40.13v-4.13h.64v.76h.04c.07-.2.21-.37.4-.53.19-.15.46-.23.79-.23h.25v.64h-.38c-.35,0-.62.07-.82.2-.19.13-.29.29-.29.49v2.8h-.64,0ZM60.37,40.13v-4.13h.64v.67h.03c.1-.23.24-.42.42-.56.19-.14.43-.21.74-.21.43,0,.76.14,1.01.42.25.27.38.66.38,1.16v2.65h-.64v-2.54c0-.74-.31-1.11-.94-1.11-.13,0-.25.02-.38.05-.12.03-.22.08-.32.14-.1.06-.17.15-.23.25-.05.1-.08.21-.08.34v2.86h-.64.01ZM68,40.13c-.24,0-.41-.06-.52-.19-.1-.13-.17-.29-.19-.48h-.04c-.09.26-.24.45-.45.58s-.46.19-.74.19c-.44,0-.78-.11-1.02-.34-.24-.22-.36-.53-.36-.91s.14-.69.42-.9c.29-.21.73-.31,1.34-.31h.82v-.41c0-.29-.08-.52-.24-.67-.16-.15-.41-.23-.74-.23-.25,0-.46.06-.63.17-.17.11-.3.26-.42.45l-.38-.36c.11-.22.29-.41.54-.57s.55-.24.93-.24c.5,0,.89.12,1.17.37s.42.59.42,1.02v2.27h.47v.56h-.38ZM66.16,39.68c.16,0,.31-.02.44-.06.13-.04.25-.09.34-.16.1-.07.17-.15.22-.24s.08-.19.08-.3v-.68h-.85c-.37,0-.64.05-.81.16s-.25.26-.25.46v.17c0,.2.07.36.22.47s.35.17.6.17h0ZM70.26,40.13c-.22,0-.39-.06-.51-.18-.11-.13-.17-.29-.17-.5v-2.89h-.68v-.56h.38c.14,0,.23-.03.28-.08.05-.06.08-.16.08-.3v-.77h.58v1.14h.9v.56h-.9v3.01h.84v.56h-.8,0ZM72.56,35.03c-.14,0-.24-.03-.3-.1-.06-.07-.09-.16-.09-.26v-.1c0-.11.03-.19.09-.26s.17-.1.3-.1.24.03.3.1c.06.06.1.15.1.26v.1c0,.11-.03.19-.1.26-.06.06-.16.1-.3.1ZM72.24,36h.64v4.13h-.64v-4.13ZM75.88,40.23c-.28,0-.53-.05-.76-.15-.23-.1-.43-.25-.59-.43-.16-.19-.29-.42-.38-.68-.09-.27-.14-.57-.14-.9s.05-.62.14-.89.22-.49.38-.68c.17-.19.36-.34.59-.44.23-.1.48-.15.76-.15s.53.05.75.15c.23.1.43.25.59.44.17.19.29.41.38.68s.14.56.14.89-.05.63-.14.9c-.09.26-.22.49-.38.68-.17.19-.36.33-.59.43-.22.1-.47.15-.75.15ZM75.88,39.66c.35,0,.63-.11.85-.32s.33-.54.33-.98v-.59c0-.44-.11-.76-.33-.98-.22-.21-.5-.32-.85-.32s-.63.11-.85.32-.33.54-.33.98v.59c0,.44.11.76.33.98.22.21.5.32.85.32ZM78.87,40.13v-4.13h.64v.67h.03c.1-.23.24-.42.42-.56.19-.14.43-.21.74-.21.43,0,.76.14,1.01.42.25.27.38.66.38,1.16v2.65h-.64v-2.54c0-.74-.31-1.11-.94-1.11-.13,0-.25.02-.38.05-.12.03-.22.08-.32.14-.1.06-.17.15-.23.25-.05.1-.08.21-.08.34v2.86h-.64.01ZM86.5,40.13c-.24,0-.41-.06-.52-.19-.1-.13-.17-.29-.19-.48h-.04c-.09.26-.24.45-.45.58s-.46.19-.74.19c-.44,0-.78-.11-1.02-.34-.24-.22-.36-.53-.36-.91s.14-.69.42-.9c.29-.21.73-.31,1.34-.31h.82v-.41c0-.29-.08-.52-.24-.67-.16-.15-.41-.23-.74-.23-.25,0-.46.06-.63.17-.17.11-.3.26-.42.45l-.38-.36c.11-.22.29-.41.54-.57s.55-.24.93-.24c.5,0,.89.12,1.17.37s.42.59.42,1.02v2.27h.47v.56h-.38ZM84.66,39.68c.16,0,.31-.02.44-.06s.25-.09.34-.16c.1-.07.17-.15.22-.24s.08-.19.08-.3v-.68h-.85c-.37,0-.64.05-.81.16s-.25.26-.25.46v.17c0,.2.07.36.22.47s.35.17.6.17h0ZM88.53,40.13c-.22,0-.39-.06-.51-.18-.11-.13-.17-.29-.17-.48v-5.26h.64v5.36h.61v.56h-.57ZM92.15,40.13v-5.58h3.33v.59h-2.66v1.87h2.42v.59h-2.42v2.53h-.67ZM96.95,35.03c-.14,0-.24-.03-.3-.1-.06-.07-.09-.16-.09-.26v-.1c0-.11.03-.19.09-.26s.17-.1.3-.1.24.03.3.1c.06.06.1.15.1.26v.1c0,.11-.03.19-.1.26-.06.06-.16.1-.3.1ZM96.63,36h.64v4.13h-.64v-4.13ZM98.71,40.13v-4.13h.64v.67h.03c.1-.23.24-.42.42-.56.19-.14.43-.21.74-.21.43,0,.76.14,1.01.42.25.27.38.66.38,1.16v2.65h-.64v-2.54c0-.74-.31-1.11-.94-1.11-.13,0-.25.02-.38.05-.12.03-.22.08-.32.14-.1.06-.17.15-.23.25-.05.1-.08.21-.08.34v2.86h-.64.01ZM106.34,40.13c-.24,0-.41-.06-.52-.19-.1-.13-.17-.29-.19-.48h-.04c-.09.26-.24.45-.45.58s-.46.19-.74.19c-.44,0-.78-.11-1.02-.34-.24-.22-.36-.53-.36-.91s.14-.69.42-.9c.29-.21.73-.31,1.34-.31h.82v-.41c0-.29-.08-.52-.24-.67-.16-.15-.4-.23-.74-.23-.25,0-.46.06-.63.17-.17.11-.3.26-.42.45l-.38-.36c.11-.22.29-.41.54-.57.24-.16.56-.24.93-.24.5,0,.89.12,1.17.37s.42.59.42,1.02v2.27h.47v.56h-.38ZM104.5,39.68c.16,0,.31-.02.44-.06s.25-.09.34-.16c.1-.07.17-.15.22-.24s.08-.19.08-.3v-.68h-.85c-.37,0-.64.05-.81.16s-.25.26-.25.46v.17c0,.2.07.36.22.47s.35.17.6.17h0ZM107.69,40.13v-4.13h.64v.67h.03c.1-.23.24-.42.42-.56.19-.14.43-.21.74-.21.43,0,.76.14,1.01.42.25.27.38.66.38,1.16v2.65h-.64v-2.54c0-.74-.31-1.11-.94-1.11-.13,0-.25.02-.38.05-.12.03-.22.08-.32.14-.1.06-.17.15-.23.25-.05.1-.08.21-.08.34v2.86h-.64.01ZM113.85,40.23c-.29,0-.55-.05-.78-.15-.23-.1-.42-.25-.58-.43-.15-.19-.27-.41-.36-.68-.08-.27-.12-.57-.12-.9s.04-.63.12-.9c.09-.27.21-.49.36-.68.16-.19.36-.33.58-.43.23-.1.49-.15.78-.15.41,0,.74.09.98.27.25.18.44.41.56.7l-.54.27c-.07-.21-.2-.38-.37-.5-.17-.12-.38-.18-.64-.18-.19,0-.36.03-.5.1-.14.06-.26.14-.36.26-.1.11-.17.24-.22.39-.05.15-.07.31-.07.5v.7c0,.36.1.66.29.9.2.23.49.34.86.34.52,0,.89-.24,1.12-.72l.46.31c-.13.3-.33.54-.6.71-.26.18-.59.26-.98.26h.01ZM116.74,35.03c-.14,0-.24-.03-.3-.1-.06-.07-.09-.16-.09-.26v-.1c0-.11.03-.19.09-.26s.17-.1.3-.1.24.03.3.1c.06.06.1.15.1.26v.1c0,.11-.03.19-.1.26-.06.06-.16.1-.3.1ZM116.42,36h.64v4.13h-.64v-4.13ZM121.5,40.13c-.24,0-.41-.06-.52-.19-.1-.13-.17-.29-.19-.48h-.04c-.09.26-.24.45-.45.58s-.46.19-.74.19c-.44,0-.78-.11-1.02-.34-.24-.22-.36-.53-.36-.91s.14-.69.42-.9c.29-.21.73-.31,1.34-.31h.82v-.41c0-.29-.08-.52-.24-.67-.16-.15-.41-.23-.74-.23-.25,0-.46.06-.63.17-.17.11-.3.26-.42.45l-.38-.36c.11-.22.29-.41.54-.57.24-.16.55-.24.93-.24.5,0,.89.12,1.17.37s.42.59.42,1.02v2.27h.47v.56h-.38ZM119.66,39.68c.16,0,.31-.02.44-.06.13-.04.25-.09.34-.16.1-.07.17-.15.22-.24s.08-.19.08-.3v-.68h-.85c-.37,0-.64.05-.81.16s-.25.26-.25.46v.17c0,.2.07.36.22.47s.35.17.6.17h0ZM123.54,40.13c-.22,0-.4-.06-.51-.18-.11-.13-.17-.29-.17-.48v-5.26h.64v5.36h.61v.56h-.57ZM130.65,40.13l-.56-1.65h-2.26l-.56,1.65h-.68l1.95-5.58h.86l1.95,5.58s-.7,0-.7,0ZM128.97,35.17h-.04l-.94,2.72h1.93l-.94-2.72h0ZM131.78,36h.62l.44,1.78.44,1.81h.02l.5-1.81.52-1.78h.57l.54,1.78.51,1.81h.02l.42-1.81.45-1.78h.6l-1.1,4.13h-.79l-.58-1.98-.36-1.26h-.02l-.35,1.26-.58,1.98h-.78l-1.1-4.13h.01ZM141.36,40.13c-.24,0-.41-.06-.52-.19-.1-.13-.17-.29-.19-.48h-.04c-.09.26-.24.45-.45.58-.21.13-.46.19-.74.19-.44,0-.78-.11-1.02-.34-.24-.22-.36-.53-.36-.91s.14-.69.42-.9c.29-.21.73-.31,1.34-.31h.82v-.41c0-.29-.08-.52-.24-.67-.16-.15-.41-.23-.74-.23-.25,0-.46.06-.63.17-.17.11-.3.26-.42.45l-.38-.36c.11-.22.29-.41.54-.57s.55-.24.93-.24c.5,0,.89.12,1.17.37s.42.59.42,1.02v2.27h.47v.56h-.38,0ZM139.52,39.68c.16,0,.31-.02.44-.06s.25-.09.34-.16c.1-.07.17-.15.22-.24s.08-.19.08-.3v-.68h-.85c-.37,0-.64.05-.81.16s-.25.26-.25.46v.17c0,.2.07.36.22.47s.35.17.6.17h0ZM142.72,40.13v-4.13h.64v.76h.04c.08-.2.21-.37.4-.53s.46-.23.79-.23h.25v.64h-.38c-.35,0-.62.07-.82.2-.19.13-.29.29-.29.49v2.8h-.64.01ZM148.33,39.46h-.03c-.25.51-.65.77-1.21.77-.26,0-.49-.05-.7-.15-.21-.1-.39-.25-.54-.43-.14-.19-.26-.41-.34-.68-.07-.27-.11-.57-.11-.9s.04-.63.11-.9c.08-.27.19-.49.34-.68s.33-.33.54-.43c.21-.1.44-.15.7-.15.29,0,.53.06.74.19.21.12.37.31.47.58h.03v-2.46h.64v5.92h-.64v-.67h0ZM147.26,39.65c.14,0,.28-.02.41-.06s.25-.09.34-.16c.1-.07.17-.16.22-.26.06-.11.09-.23.09-.36v-1.54c0-.11-.03-.22-.09-.31-.05-.1-.13-.19-.22-.26-.1-.07-.21-.12-.34-.16-.13-.04-.26-.06-.41-.06-.36,0-.65.11-.86.34-.21.22-.31.52-.31.89v.7c0,.37.1.67.31.9.21.22.49.34.86.34ZM151.65,40.23c-.38,0-.71-.07-.97-.22s-.48-.35-.66-.59l.46-.37c.16.2.34.36.54.47s.43.16.69.16.48-.06.63-.18c.16-.12.23-.28.23-.5,0-.16-.05-.3-.16-.41-.1-.12-.29-.2-.56-.24l-.33-.05c-.19-.03-.37-.07-.53-.12-.16-.06-.3-.13-.42-.22-.12-.1-.21-.21-.28-.35-.06-.14-.1-.3-.1-.5s.04-.38.11-.53c.08-.15.18-.28.3-.38.13-.1.29-.18.47-.22.18-.05.38-.08.58-.08.34,0,.62.06.84.18.23.12.43.28.6.49l-.42.38c-.09-.13-.22-.24-.4-.34-.18-.11-.4-.16-.66-.16s-.47.06-.61.18c-.13.11-.2.27-.2.46s.07.35.2.44c.14.09.34.16.59.2l.32.05c.46.07.78.2.98.4.19.19.29.45.29.76,0,.4-.14.71-.41.94s-.64.34-1.12.34h0Z"/>
  <path class="st1" d="M30.23,34.55h3.01v.6h-2.28v1.86h2.11v.6h-2.11v2.53h-.73v-5.58h0Z"/>
  <g>
    <path class="st0" d="M9.88,27.91c.44.04.89.15,1.35.36.46.2.86.46,1.19.78.22.22.21.42-.03.6-.36.29-.79.5-1.29.63-.49.14-.96.18-1.41.12-.44-.04-.89-.16-1.35-.37-.46-.21-.86-.47-1.19-.78-.26-.26-.23-.48.08-.68.36-.23.79-.41,1.27-.53s.94-.16,1.37-.12h.01ZM12.77,23.19c.21-.3.43-.31.67-.04.3.33.55.72.75,1.19.21.46.33.92.36,1.35.05.46,0,.93-.16,1.42-.15.49-.38.91-.68,1.24-.2.24-.4.24-.59.01-.3-.31-.55-.7-.75-1.18-.19-.46-.3-.93-.33-1.38-.02-.43.04-.88.16-1.37.14-.48.33-.9.57-1.26,0,0,0,.02,0,.02ZM6,24.16c.42.14.82.36,1.22.68.39.32.7.67.93,1.07.16.26.1.44-.18.56-.43.19-.9.29-1.41.3-.51.02-.98-.06-1.39-.23-.41-.15-.82-.4-1.22-.72-.39-.32-.7-.67-.93-1.05-.18-.31-.1-.52.23-.63.42-.14.88-.2,1.38-.19.5,0,.96.07,1.37.22h0ZM9.98,20.34c.28-.26.5-.22.66.11.2.39.34.84.41,1.35.08.5.08.97,0,1.39-.07.46-.25.9-.52,1.34-.27.43-.59.77-.96,1.03-.26.18-.46.13-.59-.15-.21-.38-.35-.82-.42-1.33-.06-.5-.05-.97.04-1.41.09-.42.26-.84.51-1.27.26-.44.55-.79.88-1.07h0ZM0,18.8c-.05-.35.11-.51.46-.48.43.04.87.16,1.33.38.46.21.84.46,1.15.77.33.28.61.65.83,1.09.24.45.38.9.44,1.35.04.32-.1.47-.41.46-.46,0-.92-.11-1.39-.3-.47-.19-.87-.46-1.18-.79-.32-.3-.59-.68-.82-1.13-.23-.46-.36-.92-.41-1.35ZM8.16,17.57c.35-.11.52.02.53.38.05.44,0,.9-.14,1.39-.14.48-.33.91-.57,1.27-.24.39-.57.73-1,1.01s-.87.47-1.31.57c-.31.05-.48-.08-.51-.38-.03-.45.03-.91.16-1.39.14-.49.34-.92.6-1.27s.59-.67,1-.96c.41-.29.82-.5,1.23-.63h.01ZM5.7,14.37c.33-.27.72-.5,1.19-.67.47-.18.93-.28,1.38-.3.35,0,.49.16.44.51-.08.44-.26.88-.52,1.33-.26.44-.55.8-.89,1.08-.33.31-.74.55-1.23.72-.49.16-.97.23-1.42.21-.29-.02-.41-.18-.37-.48.08-.44.25-.88.51-1.31.26-.44.57-.8.92-1.08h0ZM.05,12.51c.05-.36.24-.48.57-.34.41.15.81.39,1.19.71.39.31.7.65.93,1.01.24.38.41.82.52,1.33.12.49.15.95.08,1.37-.04.32-.21.44-.51.36-.45-.11-.88-.32-1.29-.63-.4-.32-.71-.67-.93-1.07-.24-.39-.41-.83-.52-1.33-.1-.5-.12-.97-.05-1.41,0,0,.01,0,.01,0ZM6.49,9.71c.4-.15.85-.23,1.35-.23s.96.05,1.38.19c.33.12.41.32.23.6-.21.38-.52.74-.92,1.08-.39.33-.8.57-1.23.74-.43.16-.9.25-1.42.25s-.97-.11-1.38-.3c-.28-.14-.34-.33-.18-.59.23-.38.54-.73.93-1.04.39-.32.8-.55,1.23-.7h.01ZM1.82,6.02c.17-.31.39-.36.66-.14.33.28.62.64.88,1.08.26.43.44.86.53,1.29.1.43.11.9.04,1.41-.06.5-.2.94-.41,1.33-.15.27-.34.32-.59.15-.37-.26-.7-.6-.97-1.03-.27-.44-.45-.88-.53-1.33-.08-.43-.09-.89,0-1.39.07-.51.21-.97.41-1.37h-.02ZM9.02,5.7c.44-.09.9-.1,1.39-.03.49.06.93.19,1.33.38.32.15.37.36.15.64-.28.34-.64.64-1.08.9-.43.26-.86.45-1.3.55-.44.12-.91.14-1.42.07-.5-.08-.94-.24-1.33-.48-.26-.17-.29-.37-.11-.6.27-.36.62-.67,1.05-.93.44-.26.88-.43,1.31-.51h.01ZM4.92,1.38c.21-.28.44-.29.68-.03.28.33.52.72.71,1.19.2.46.31.91.34,1.34.04.44-.02.9-.16,1.39-.14.48-.33.91-.59,1.27-.17.26-.38.27-.62.05-.34-.31-.61-.7-.82-1.16-.21-.47-.32-.93-.33-1.38-.03-.43.03-.89.18-1.38.15-.5.35-.93.6-1.3h.01ZM12.19,0c.36-.05.52.11.49.48-.05.44-.19.89-.41,1.35-.21.46-.46.85-.77,1.15-.32.35-.71.62-1.18.83-.46.21-.91.32-1.37.34-.3,0-.44-.14-.41-.44.04-.44.16-.88.37-1.34.22-.46.48-.85.79-1.16.31-.3.69-.56,1.15-.78.46-.23.9-.37,1.33-.44h.01Z"/>
    <path class="st0" d="M60.2,15.7h-7.81v-1.46l3.89-3.58c.56-.51,1.02-1.05,1.39-1.62.37-.58.57-1.16.57-1.74v-.2c0-.66-.18-1.19-.54-1.6s-.91-.61-1.65-.61c-.36,0-.68.05-.95.15s-.51.25-.71.43c-.19.18-.36.4-.5.65-.12.24-.22.5-.31.78l-1.28-.5c.12-.35.26-.69.46-1.02.2-.34.46-.64.75-.91.31-.26.67-.47,1.09-.63.43-.16.94-.24,1.52-.24s1.1.09,1.55.26c.46.17.84.41,1.14.71s.54.67.7,1.09c.17.42.26.88.26,1.39,0,.46-.07.9-.2,1.29-.12.4-.3.77-.53,1.14-.22.35-.5.7-.84,1.04-.32.34-.67.68-1.04,1.02l-3.21,2.88h6.25s0,1.28,0,1.28ZM65.26,15.9c-1.42,0-2.46-.54-3.12-1.62-.65-1.08-.97-2.59-.97-4.53s.33-3.46.97-4.53c.66-1.08,1.7-1.62,3.12-1.62s2.46.54,3.1,1.62c.66,1.08.99,2.59.99,4.53s-.33,3.46-.99,4.53c-.65,1.08-1.68,1.62-3.1,1.62ZM65.26,14.66c.46,0,.86-.09,1.19-.29s.6-.46.8-.82c.2-.35.35-.77.44-1.25.1-.48.15-1.01.15-1.59v-1.94c0-.58-.05-1.11-.15-1.59-.09-.48-.24-.89-.44-1.25-.2-.35-.47-.63-.8-.82s-.73-.29-1.19-.29-.86.09-1.19.29-.6.46-.8.82c-.2.35-.36.77-.46,1.25-.09.48-.14,1.01-.14,1.59v1.94c0,.58.05,1.11.14,1.59.1.48.26.89.46,1.25.2.35.47.63.8.82.33.19.73.29,1.19.29ZM78.26,15.7h-7.81v-1.46l3.89-3.58c.56-.51,1.02-1.05,1.39-1.62.37-.58.57-1.16.57-1.74v-.2c0-.66-.18-1.19-.54-1.6s-.91-.61-1.65-.61c-.36,0-.68.05-.95.15s-.51.25-.71.43c-.19.18-.36.4-.5.65-.12.24-.22.5-.31.78l-1.28-.5c.12-.35.26-.69.46-1.02.2-.34.46-.64.75-.91.31-.26.67-.47,1.09-.63.43-.16.94-.24,1.52-.24s1.1.09,1.55.26.84.41,1.14.71.54.67.7,1.09c.17.42.26.88.26,1.39,0,.46-.07.9-.2,1.29-.12.4-.3.77-.53,1.14-.22.35-.5.7-.84,1.04-.32.34-.67.68-1.04,1.02l-3.21,2.88h6.25s0,1.28,0,1.28ZM86.69,5.06h-5.21l-.34,4.53h.12c.29-.4.6-.71.95-.95.36-.24.86-.36,1.48-.36.51,0,.98.09,1.42.26.43.17.81.42,1.12.74.32.31.57.69.74,1.14.18.46.27.97.27,1.55s-.09,1.12-.27,1.6c-.18.48-.45.89-.8,1.25-.34.34-.76.6-1.26.8-.49.19-1.05.29-1.67.29-.5,0-.95-.05-1.33-.17-.37-.12-.71-.26-1.01-.46s-.56-.41-.78-.65-.42-.49-.6-.75l1.08-.82c.15.24.3.46.46.65.17.19.35.36.54.5.2.14.43.25.7.33.26.07.57.1.94.1.82,0,1.44-.22,1.86-.65s.63-1.04.63-1.82v-.17c0-.78-.21-1.39-.63-1.82s-1.04-.65-1.86-.65c-.54,0-.98.1-1.29.31-.31.19-.59.43-.84.7l-1.21-.17.43-6.55h6.38v1.26h0s-.02-.02-.02-.02Z"/>
    <path class="st0" d="M129.67,27.91c.43-.04.88,0,1.37.12.48.13.91.31,1.27.53.31.2.34.43.08.68-.33.31-.72.57-1.19.78-.47.21-.91.33-1.34.37-.46.05-.94.01-1.43-.12-.48-.13-.91-.34-1.27-.63-.24-.18-.24-.38,0-.6.32-.32.71-.58,1.18-.78.46-.2.92-.32,1.35-.36h-.02ZM126.79,23.19c.24.36.42.77.56,1.26.14.48.2.94.18,1.37-.03.46-.14.92-.34,1.38-.19.47-.43.87-.72,1.18-.21.23-.41.22-.6-.01-.3-.34-.53-.75-.68-1.24s-.21-.97-.16-1.42c.03-.44.14-.89.34-1.35.21-.46.47-.86.78-1.19.24-.27.46-.26.66.04l-.02-.02ZM133.56,24.16c.41-.15.87-.22,1.37-.22s.97.05,1.38.19c.34.11.42.32.23.63-.23.38-.54.73-.94,1.05-.39.33-.79.57-1.2.72-.42.17-.88.25-1.39.23-.51,0-.98-.11-1.39-.3-.28-.12-.35-.31-.19-.56.23-.39.54-.75.93-1.07s.8-.55,1.22-.68h-.02,0ZM129.58,20.34c.33.27.62.63.86,1.07.25.43.43.85.52,1.27.09.44.1.91.04,1.41-.06.5-.2.94-.41,1.33-.13.28-.32.33-.59.15-.37-.26-.7-.6-.97-1.03-.27-.44-.45-.88-.52-1.34-.08-.43-.09-.89,0-1.39.08-.51.22-.96.42-1.35.15-.33.37-.36.66-.11h0ZM139.56,18.8c-.05.44-.2.89-.42,1.35-.23.46-.5.83-.82,1.13-.31.34-.7.6-1.18.79-.46.19-.93.29-1.4.3-.31,0-.44-.15-.4-.46.06-.46.2-.91.42-1.35.24-.45.51-.81.83-1.09.31-.3.69-.56,1.15-.77.46-.22.9-.35,1.34-.38.35-.03.5.13.46.48h.02,0ZM131.4,17.57c.42.13.83.34,1.23.63.41.29.74.61,1,.96.26.36.46.78.6,1.27.14.48.19.95.15,1.39-.02.3-.18.43-.48.38-.46-.1-.9-.29-1.33-.57-.43-.28-.76-.62-.98-1.01-.26-.36-.45-.79-.59-1.27-.14-.49-.18-.96-.14-1.39,0-.36.19-.49.53-.38h0ZM133.86,14.37c.35.28.66.64.92,1.08s.43.88.51,1.31c.04.3-.08.46-.37.48-.46.03-.94-.04-1.42-.21-.48-.17-.89-.41-1.23-.72-.34-.28-.64-.64-.9-1.08-.26-.45-.42-.89-.51-1.33-.05-.35.1-.52.44-.51.45.02.91.12,1.38.3.47.17.87.4,1.19.67h-.01ZM139.5,12.51c.06.44.04.91-.07,1.41-.1.49-.27.93-.51,1.33-.23.39-.55.75-.96,1.07-.4.31-.82.52-1.24.63-.3.08-.47-.04-.52-.36-.05-.42-.03-.88.08-1.37.11-.5.28-.94.52-1.33.23-.36.53-.7.92-1.01.39-.32.79-.56,1.2-.71.34-.14.53-.02.57.34h.01ZM133.08,9.71c.42.15.83.38,1.22.7.4.31.71.66.93,1.04.15.26.1.45-.18.59-.42.19-.89.29-1.41.3-.51,0-.97-.08-1.4-.25-.43-.16-.84-.41-1.23-.74-.39-.34-.7-.7-.92-1.08-.17-.28-.1-.48.23-.6.42-.14.88-.2,1.38-.19.5,0,.96.08,1.37.23h0ZM137.73,6.02c.21.4.35.86.42,1.37.07.5.07.97,0,1.39-.08.45-.26.89-.53,1.33-.27.43-.6.77-.97,1.03-.25.17-.44.12-.59-.15-.21-.38-.35-.82-.41-1.33s-.05-.98.04-1.41.26-.86.52-1.29c.26-.44.56-.8.88-1.08.27-.22.49-.17.66.14h-.02ZM130.53,5.7c.44.07.87.24,1.3.51.44.26.79.57,1.07.93.18.23.14.43-.11.6-.38.24-.83.4-1.34.48-.5.07-.97.05-1.42-.07-.43-.1-.86-.28-1.3-.55-.44-.26-.79-.57-1.07-.9-.23-.28-.18-.5.15-.64.38-.19.82-.32,1.33-.38.5-.07.97-.06,1.39.03h0ZM134.64,1.38c.26.36.46.8.6,1.3.14.49.21.95.18,1.38,0,.45-.12.91-.33,1.38-.21.46-.48.85-.82,1.16-.24.22-.44.2-.61-.05-.26-.36-.46-.79-.6-1.27-.14-.49-.19-.96-.15-1.39.03-.43.14-.88.33-1.34.2-.46.45-.86.74-1.19.24-.26.46-.26.67.03h0ZM127.36,0c.44.06.88.21,1.33.44.45.22.82.48,1.13.78.32.31.58.7.79,1.16.22.46.35.9.4,1.34.02.3-.12.45-.42.44-.46-.02-.92-.13-1.38-.34s-.84-.49-1.16-.83c-.3-.3-.56-.68-.78-1.15-.21-.46-.34-.92-.4-1.35-.02-.36.15-.52.49-.48h0Z"/>
    <path class="st0" d="M193.05,12.73l1.96-.47.82,2.36-2.77-1.9h-.01ZM197.55,9.67h-3.44l-1.06-3.04-1.06,3.04h-3.44l2.79,1.89-1.06,3.04,2.79-1.89,1.71-1.16,2.77-1.89h0Z"/>
    <path class="st0" d="M202.05,12.73l1.95-.47.82,2.36-2.77-1.9h0ZM206.55,9.67h-3.44l-1.06-3.04-1.06,3.04h-3.44l2.79,1.89-1.06,3.04,2.79-1.89,1.71-1.16,2.77-1.89h0Z"/>
    <path class="st0" d="M211.05,12.73l1.95-.47.82,2.36-2.77-1.9h0ZM215.55,9.67h-3.44l-1.06-3.04-1.06,3.04h-3.44l2.79,1.89-1.06,3.04,2.79-1.89,1.71-1.16,2.77-1.89h0Z"/>
    <path class="st0" d="M220.05,12.73l1.95-.47.82,2.36-2.77-1.9h0ZM224.55,9.67h-3.44l-1.06-3.04-1.06,3.04h-3.44l2.79,1.89-1.06,3.04,2.79-1.89,1.71-1.16,2.77-1.89h0Z"/>
    <path class="st2" d="M229.05,12.73l1.95-.47.82,2.36-2.77-1.9h0ZM233.55,9.67h-3.44l-1.06-3.04-1.06,3.04h-3.44l2.79,1.89-1.06,3.04,2.79-1.89,1.71-1.16,2.77-1.89h0Z"/>
    <path class="st0" d="M191.4,18.98v4.65h-1.06v-4.65h-1.58v-.94h4.22v.94h-1.58ZM194.98,23.63h-1.06v-5.58h2.52c.26,0,.49.04.69.12s.37.2.51.35.25.33.33.54c.08.21.12.45.12.71,0,.38-.09.71-.26.99s-.43.47-.78.59l1.14,2.27h-1.18l-1.04-2.15h-1v2.15h0ZM196.34,20.59c.2,0,.36-.05.48-.16s.18-.27.18-.47v-.37c0-.2-.06-.36-.18-.46-.12-.11-.28-.16-.48-.16h-1.36v1.62s1.36,0,1.36,0ZM200.22,18.05v3.43c0,.44.08.77.25.98.17.22.46.33.86.33s.68-.11.85-.33c.17-.22.26-.55.26-.98v-3.43h1.04v3.3c0,.41-.04.77-.12,1.06-.08.3-.2.55-.37.74-.17.2-.39.34-.67.44-.27.09-.6.14-.99.14s-.73-.05-1-.14c-.27-.1-.49-.24-.66-.44s-.29-.45-.37-.74c-.08-.3-.11-.65-.11-1.06v-3.3h1.04,0ZM206.56,23.73c-.48,0-.89-.09-1.22-.26s-.62-.39-.86-.67l.71-.69c.19.22.4.39.64.51s.5.18.79.18c.32,0,.57-.07.74-.21.16-.14.25-.34.25-.58,0-.19-.05-.34-.16-.46-.11-.12-.31-.2-.6-.26l-.53-.08c-1.11-.18-1.67-.72-1.67-1.62,0-.25.05-.48.14-.68.1-.2.23-.38.41-.52.18-.14.39-.25.63-.33.25-.08.53-.12.85-.12.42,0,.79.07,1.1.21s.58.34.81.62l-.72.68c-.14-.17-.31-.31-.5-.42-.2-.11-.45-.16-.74-.16s-.53.06-.69.18c-.15.11-.22.27-.22.48s.06.37.18.47c.12.1.32.18.59.22l.52.1c.57.1.98.28,1.25.54s.41.62.41,1.08c0,.27-.05.51-.14.73-.09.21-.23.4-.41.56-.18.15-.39.27-.66.36-.26.09-.55.13-.89.13h0ZM211.83,18.98v4.65h-1.06v-4.65h-1.58v-.94h4.22v.94h-1.58ZM214.36,23.63v-5.58h2.51c.26,0,.49.04.69.13.21.08.38.2.53.35.14.15.25.33.33.54.08.21.11.45.11.7s-.04.5-.11.71c-.08.21-.18.39-.33.54-.14.15-.32.27-.53.35-.2.08-.43.12-.69.12h-1.46v2.13h-1.06.01ZM215.41,20.59h1.36c.2,0,.36-.05.48-.16s.18-.27.18-.47v-.37c0-.2-.06-.36-.18-.46-.12-.11-.28-.16-.48-.16h-1.36s0,1.62,0,1.62ZM219.33,23.63v-.85h.74v-3.89h-.74v-.85h2.54v.85h-.74v3.89h.74v.85h-2.54ZM223.02,23.63v-5.58h1.06v4.65h2.2v.94h-3.26ZM229.17,23.73c-.37,0-.7-.06-1-.18s-.55-.31-.77-.55c-.21-.25-.37-.55-.49-.9-.12-.36-.18-.77-.18-1.25s.06-.88.18-1.24.28-.67.49-.91c.21-.25.47-.43.77-.55.3-.12.63-.18,1-.18s.7.06,1,.18.55.31.77.55c.21.25.38.55.49.91.12.36.18.77.18,1.24s-.06.89-.18,1.25c-.11.36-.28.66-.49.9-.21.25-.47.43-.77.55-.3.12-.63.18-1,.18ZM229.17,22.79c.4,0,.72-.13.95-.4.24-.27.36-.64.36-1.12v-.86c0-.48-.12-.85-.36-1.12-.23-.27-.55-.4-.95-.4s-.72.13-.96.4-.35.64-.35,1.12v.86c0,.48.12.85.35,1.12.24.27.56.4.96.4ZM234.75,18.98v4.65h-1.06v-4.65h-1.58v-.94h4.22v.94h-1.58ZM240.31,23.63h-1.06v-5.58h2.52c.26,0,.48.04.69.12s.37.2.51.35.25.33.33.54c.08.21.12.45.12.71,0,.38-.09.71-.26.99s-.43.47-.78.59l1.14,2.27h-1.18l-1.04-2.15h-1v2.15h0ZM241.67,20.59c.2,0,.36-.05.48-.16s.18-.27.18-.47v-.37c0-.2-.06-.36-.18-.46-.12-.11-.28-.16-.48-.16h-1.36v1.62s1.36,0,1.36,0ZM248.1,23.63l-.45-1.42h-1.98l-.44,1.42h-1.07l1.87-5.58h1.31l1.86,5.58h-1.1,0ZM246.67,19.01h-.04l-.71,2.3h1.47l-.72-2.3ZM251.77,18.98v4.65h-1.06v-4.65h-1.58v-.94h4.22v.94h-1.58ZM254.02,23.63v-.85h.74v-3.89h-.74v-.85h2.54v.85h-.74v3.89h.74v.85h-2.54ZM259.32,20.77l-.58-1.16h-.02v4.02h-1v-5.58h1.16l1.68,2.86.58,1.16h.02v-4.02h1v5.58h-1.16l-1.68-2.86ZM267.11,22.77h-.03c-.05.27-.2.5-.46.69-.25.18-.59.27-1.01.27-.33,0-.64-.06-.92-.18s-.52-.3-.73-.54c-.2-.25-.36-.55-.48-.9-.12-.36-.18-.77-.18-1.24s.06-.88.18-1.24.29-.67.51-.91c.22-.25.48-.43.78-.56s.64-.19,1.02-.19c.5,0,.93.11,1.28.33s.63.53.83.94l-.86.5c-.1-.24-.25-.44-.46-.6-.2-.16-.46-.24-.8-.24-.42,0-.75.13-1,.38-.24.25-.37.62-.37,1.12v.9c0,.49.13.86.38,1.12s.59.38,1.01.38c.17,0,.32-.02.46-.06.14-.04.27-.1.38-.18.11-.08.19-.18.26-.3s.1-.26.1-.42v-.36h-1.1v-.89h2.11v3.04h-.91v-.86h.01Z"/>
    <path class="st0" d="M154.47,37.63v-.59h1.56v-4.5h-.06l-1.41,1.31-.39-.42,1.48-1.38h1.05v4.99h1.44v.59h-3.67ZM161.64,37.63v-1.1h-2.7v-.59l2.34-3.9h1v3.93h.81v.56h-.81v1.1h-.64ZM159.58,35.97h2.06v-3.41h-.04l-2.02,3.41ZM167.79,37.63h-3.66v-.69l1.82-1.68c.26-.24.48-.49.66-.76.18-.27.26-.54.26-.82v-.1c0-.31-.09-.56-.26-.75s-.43-.29-.78-.29c-.17,0-.32.02-.45.07-.13.05-.24.11-.34.2-.09.09-.17.19-.23.3s-.11.23-.14.37l-.6-.23c.05-.17.12-.33.22-.48.1-.16.21-.3.35-.42s.31-.22.51-.3c.2-.07.44-.11.71-.11s.51.04.73.12c.21.08.39.19.54.34.14.14.25.31.33.51.08.2.12.42.12.66,0,.22-.03.42-.1.61-.06.19-.14.37-.25.54-.11.17-.24.33-.39.49s-.31.32-.49.48l-1.5,1.35h2.94s0,.59,0,.59ZM170.49,34.41c.38,0,.66-.09.85-.26.19-.18.29-.4.29-.67v-.06c0-.29-.09-.51-.28-.66-.18-.15-.42-.22-.72-.22s-.52.06-.7.19c-.18.12-.33.29-.45.5l-.5-.38c.07-.11.15-.22.25-.33s.22-.21.35-.3.29-.15.46-.21c.18-.05.38-.08.6-.08s.46.03.66.1c.21.06.39.15.54.27s.27.26.36.44.14.38.14.6c0,.18-.03.34-.09.49-.05.14-.13.27-.22.38s-.21.2-.34.27c-.13.07-.27.13-.42.17v.03c.15.03.29.09.43.16s.27.16.38.28c.11.11.2.25.26.42.07.16.1.34.1.55,0,.24-.05.46-.14.66s-.22.37-.38.51c-.17.14-.37.25-.6.33-.24.08-.49.12-.78.12-.24,0-.45-.03-.64-.08-.19-.05-.35-.13-.5-.22-.14-.09-.27-.19-.38-.3s-.2-.23-.29-.35l.5-.38c.07.11.14.21.22.3s.18.17.28.23.22.11.34.15c.13.03.28.05.45.05.39,0,.69-.09.9-.26.2-.18.3-.44.3-.77v-.06c0-.33-.1-.58-.3-.76-.2-.18-.5-.27-.9-.27h-.66v-.58h.63,0ZM177.26,32.64h-2.45l-.16,2.13h.06c.13-.19.28-.34.45-.45s.4-.17.7-.17c.24,0,.46.04.66.12.2.08.38.19.53.34.15.14.26.32.34.54.08.21.13.46.13.73s-.04.52-.13.75c-.09.22-.21.42-.38.58-.16.16-.36.29-.59.38s-.49.14-.78.14c-.24,0-.44-.03-.62-.08-.18-.05-.33-.13-.47-.22s-.26-.19-.37-.3c-.1-.11-.2-.23-.28-.35l.5-.38c.07.11.14.21.22.3s.16.17.26.23c.1.06.21.11.33.15.12.03.27.05.44.05.38,0,.67-.1.87-.3s.3-.49.3-.86v-.08c0-.37-.1-.65-.3-.86-.2-.2-.49-.3-.87-.3-.26,0-.46.05-.61.14-.14.09-.28.2-.39.33l-.57-.08.2-3.07h2.99v.59h0ZM180.8,37.63v-4.13h.64v.76h.04c.07-.2.21-.37.4-.53s.46-.23.79-.23h.25v.64h-.38c-.35,0-.62.07-.82.2-.19.13-.29.29-.29.49v2.8h-.64.01ZM185.33,37.73c-.28,0-.54-.05-.77-.15-.22-.1-.42-.25-.58-.43-.16-.19-.28-.42-.38-.68-.09-.27-.13-.57-.13-.9s.04-.62.13-.89c.09-.27.22-.49.38-.68.17-.19.36-.34.58-.44.23-.1.49-.15.77-.15s.53.05.74.15c.22.1.41.24.56.42.15.18.27.39.35.63.09.25.13.51.13.81v.3h-2.97v.19c0,.18.03.34.08.5.06.15.14.28.24.39.11.11.24.2.38.26.15.06.33.1.52.1.26,0,.49-.06.68-.18.2-.12.35-.3.46-.53l.46.33c-.13.28-.34.51-.62.69-.28.17-.62.26-1.01.26h0ZM185.33,33.94c-.18,0-.34.03-.48.1-.14.06-.27.14-.38.26-.1.11-.18.25-.24.4-.06.15-.09.31-.09.5v.06h2.28v-.09c0-.37-.1-.66-.3-.88s-.46-.34-.79-.34h0ZM189.1,37.63l-1.45-4.13h.64l.72,2.05.45,1.41h.04l.45-1.41.74-2.05h.62l-1.46,4.13h-.75,0ZM192.53,32.53c-.14,0-.24-.03-.3-.1s-.09-.16-.09-.26v-.1c0-.11.03-.19.09-.26s.17-.1.3-.1.24.03.3.1c.06.06.1.15.1.26v.1c0,.11-.03.19-.1.26-.06.06-.16.1-.3.1ZM192.21,33.5h.64v4.13h-.64v-4.13ZM195.84,37.73c-.28,0-.54-.05-.77-.15-.22-.1-.42-.25-.58-.43-.16-.19-.29-.42-.38-.68-.08-.27-.13-.57-.13-.9s.04-.62.13-.89c.09-.27.22-.49.38-.68s.36-.34.58-.44c.23-.1.49-.15.77-.15s.53.05.74.15c.22.1.4.24.56.42.15.18.27.39.35.63.09.25.13.51.13.81v.3h-2.97v.19c0,.18.03.34.08.5.06.15.14.28.24.39.11.11.24.2.38.26.15.06.33.1.52.1.26,0,.49-.06.68-.18.2-.12.35-.3.46-.53l.46.33c-.13.28-.34.51-.62.69-.28.17-.62.26-1.01.26h0ZM195.84,33.94c-.18,0-.34.03-.48.1-.14.06-.27.14-.38.26-.1.11-.18.25-.24.4-.06.15-.09.31-.09.5v.06h2.28v-.09c0-.37-.1-.66-.3-.88s-.46-.34-.79-.34h0ZM198.29,33.5h.62l.44,1.78.44,1.81h.02l.5-1.81.52-1.78h.57l.54,1.78.51,1.81h.02l.42-1.81.45-1.78h.6l-1.1,4.13h-.79l-.58-1.98-.36-1.26h-.02l-.35,1.26-.58,1.98h-.78l-1.1-4.13h.01ZM206.16,37.73c-.38,0-.71-.07-.97-.22s-.48-.35-.66-.59l.46-.37c.16.2.34.36.54.47s.43.16.69.16.48-.06.63-.18.23-.28.23-.5c0-.16-.05-.3-.16-.41-.1-.12-.29-.2-.56-.24l-.33-.05c-.19-.03-.37-.07-.53-.12-.16-.06-.3-.13-.42-.22-.12-.1-.21-.21-.28-.35-.06-.14-.1-.3-.1-.5s.04-.38.11-.53c.07-.15.18-.28.3-.38.13-.1.29-.18.47-.22.18-.05.38-.08.58-.08.34,0,.62.06.84.18.23.12.43.28.6.49l-.42.38c-.09-.13-.22-.24-.4-.34-.18-.11-.4-.16-.66-.16s-.47.06-.61.18c-.13.11-.2.27-.2.46s.07.35.2.44c.14.09.34.16.59.2l.32.05c.46.07.78.2.98.4.19.19.29.45.29.76,0,.4-.14.71-.41.94s-.65.34-1.12.34h0ZM211.18,38.73v-7.18h.54v7.18h-.54ZM216.85,34.41c.38,0,.66-.09.85-.26.19-.18.29-.4.29-.67v-.06c0-.29-.09-.51-.28-.66-.18-.15-.42-.22-.72-.22s-.52.06-.7.19c-.18.12-.33.29-.45.5l-.5-.38c.07-.11.15-.22.25-.33s.22-.21.35-.3.29-.15.46-.21c.18-.05.38-.08.6-.08.24,0,.46.03.66.1.21.06.39.15.54.27s.27.26.36.44.14.38.14.6c0,.18-.03.34-.09.49-.05.14-.13.27-.22.38s-.21.2-.34.27-.27.13-.42.17v.03c.15.03.29.09.43.16s.27.16.38.28c.11.11.2.25.26.42.07.16.1.34.1.55,0,.24-.04.46-.14.66-.09.2-.22.37-.38.51-.17.14-.36.25-.6.33-.23.08-.49.12-.78.12-.24,0-.45-.03-.64-.08-.19-.05-.35-.13-.5-.22-.14-.09-.27-.19-.38-.3s-.2-.23-.29-.35l.5-.38c.07.11.14.21.22.3s.18.17.28.23.22.11.34.15c.13.03.28.05.45.05.4,0,.69-.09.9-.26.2-.18.3-.44.3-.77v-.06c0-.33-.1-.58-.3-.76-.2-.18-.5-.27-.9-.27h-.66v-.58h.63,0ZM222.03,37.73c-.67,0-1.15-.25-1.46-.76-.3-.51-.46-1.22-.46-2.13s.15-1.62.46-2.13c.31-.51.8-.76,1.46-.76s1.15.25,1.46.76.46,1.22.46,2.13-.15,1.62-.46,2.13c-.3.51-.79.76-1.46.76ZM222.03,37.14c.22,0,.41-.05.56-.14s.28-.22.38-.38c.1-.17.17-.36.21-.58.05-.22.07-.47.07-.74v-.91c0-.27-.02-.52-.07-.74-.04-.22-.11-.42-.21-.58-.1-.17-.22-.29-.38-.38-.15-.09-.34-.14-.56-.14s-.4.05-.56.14c-.15.09-.28.22-.38.38-.1.17-.17.36-.22.58-.04.22-.06.47-.06.74v.91c0,.27.02.52.06.74.05.22.12.42.22.58.1.17.22.29.38.38.15.09.34.14.56.14ZM227.16,37.63v-4.13h.64v.67h.03c.05-.11.1-.21.16-.3.06-.1.14-.18.22-.25.09-.07.2-.12.31-.16.12-.04.26-.06.42-.06.27,0,.52.07.75.2s.4.34.51.64h.02c.08-.22.21-.42.42-.58.21-.17.49-.26.84-.26.42,0,.75.14.98.42.24.27.36.66.36,1.16v2.65h-.64v-2.54c0-.37-.07-.65-.22-.83-.14-.19-.37-.28-.69-.28-.13,0-.25.02-.37.05-.11.03-.21.08-.3.14-.09.06-.16.15-.22.25-.05.1-.08.21-.08.34v2.86h-.64v-2.54c0-.37-.07-.65-.22-.83-.14-.19-.37-.28-.67-.28-.13,0-.25.02-.37.05s-.22.08-.31.14c-.09.06-.17.15-.22.25s-.08.21-.08.34v2.86h-.64v.02h.01ZM234.55,32.53c-.14,0-.24-.03-.3-.1s-.09-.16-.09-.26v-.1c0-.11.03-.19.09-.26s.17-.1.3-.1.24.03.3.1c.06.06.1.15.1.26v.1c0,.11-.03.19-.1.26-.06.06-.16.1-.3.1ZM234.23,33.5h.64v4.13h-.64v-4.13ZM236.99,37.63c-.22,0-.4-.06-.51-.18-.11-.13-.17-.29-.17-.48v-5.26h.64v5.36h.61v.56h-.57ZM239.21,37.63c-.22,0-.39-.06-.51-.18-.11-.13-.17-.29-.17-.48v-5.26h.64v5.36h.61v.56h-.57ZM241.11,32.53c-.14,0-.24-.03-.3-.1s-.09-.16-.09-.26v-.1c0-.11.03-.19.09-.26s.17-.1.3-.1.24.03.3.1c.06.06.1.15.1.26v.1c0,.11-.03.19-.1.26-.06.06-.16.1-.3.1ZM240.79,33.5h.64v4.13h-.64v-4.13ZM244.43,37.73c-.28,0-.53-.05-.76-.15s-.43-.25-.59-.43c-.16-.19-.29-.42-.38-.68-.09-.27-.14-.57-.14-.9s.05-.62.14-.89.22-.49.38-.68c.17-.19.36-.34.59-.44s.48-.15.76-.15.53.05.75.15c.23.1.43.25.59.44s.29.41.38.68.14.56.14.89-.04.63-.14.9c-.09.26-.22.49-.38.68-.17.19-.36.33-.59.43-.22.1-.48.15-.75.15ZM244.43,37.16c.35,0,.63-.11.85-.32s.33-.54.33-.98v-.59c0-.44-.11-.76-.33-.98-.22-.21-.5-.32-.85-.32s-.63.11-.85.32-.33.54-.33.98v.59c0,.44.11.76.33.98s.5.32.85.32ZM247.42,37.63v-4.13h.64v.67h.03c.1-.23.24-.42.42-.56.19-.14.43-.21.74-.21.43,0,.76.14,1.01.42.25.27.38.66.38,1.16v2.65h-.64v-2.54c0-.74-.31-1.11-.94-1.11-.13,0-.25.02-.38.05-.12.03-.22.08-.32.14-.1.06-.17.15-.23.25-.05.1-.08.21-.08.34v2.86h-.64.01ZM256.57,36.96h-.03c-.04.1-.1.19-.16.29-.06.09-.13.17-.22.25-.09.07-.2.13-.33.17-.13.04-.28.06-.45.06-.43,0-.76-.14-1.02-.41-.25-.28-.38-.67-.38-1.17v-2.65h.64v2.54c0,.74.31,1.11.94,1.11.13,0,.25-.02.37-.05s.23-.08.32-.14c.1-.06.17-.14.22-.24.06-.1.09-.22.09-.36v-2.86h.64v4.13h-.64v-.67s.01,0,.01,0ZM259.89,37.73c-.38,0-.71-.07-.97-.22s-.48-.35-.66-.59l.46-.37c.16.2.34.36.54.47s.43.16.69.16.48-.06.63-.18.23-.28.23-.5c0-.16-.05-.3-.16-.41-.1-.12-.29-.2-.56-.24l-.33-.05c-.19-.03-.37-.07-.53-.12-.16-.06-.3-.13-.42-.22-.12-.1-.21-.21-.28-.35-.06-.14-.1-.3-.1-.5s.04-.38.11-.53c.08-.15.18-.28.3-.38.13-.1.29-.18.47-.22.18-.05.38-.08.58-.08.34,0,.62.06.84.18.23.12.43.28.6.49l-.42.38c-.09-.13-.22-.24-.4-.34-.18-.11-.4-.16-.66-.16s-.47.06-.61.18c-.13.11-.2.27-.2.46s.07.35.2.44c.14.09.34.16.59.2l.32.05c.46.07.78.2.98.4.19.19.29.45.29.76,0,.4-.14.71-.41.94s-.65.34-1.12.34h0ZM264.18,37.73c-.28,0-.54-.05-.77-.15-.22-.1-.42-.25-.58-.43-.16-.19-.29-.42-.38-.68-.08-.27-.13-.57-.13-.9s.04-.62.13-.89.22-.49.38-.68c.17-.19.36-.34.58-.44.23-.1.49-.15.77-.15s.53.05.74.15c.22.1.41.24.56.42.15.18.27.39.35.63.09.25.13.51.13.81v.3h-2.97v.19c0,.18.03.34.08.5.06.15.14.28.24.39.11.11.23.2.38.26.15.06.33.1.52.1.26,0,.49-.06.68-.18.2-.12.35-.3.46-.53l.46.33c-.13.28-.34.51-.62.69-.28.17-.62.26-1.01.26h0ZM264.18,33.94c-.18,0-.34.03-.48.1-.14.06-.27.14-.38.26-.1.11-.18.25-.24.4s-.09.31-.09.5v.06h2.28v-.09c0-.37-.1-.66-.3-.88-.2-.22-.46-.34-.79-.34h0ZM267.1,37.63v-4.13h.64v.76h.04c.08-.2.21-.37.4-.53.19-.15.46-.23.79-.23h.25v.64h-.38c-.35,0-.62.07-.82.2-.19.13-.29.29-.29.49v2.8h-.64.01ZM271.35,37.73c-.38,0-.71-.07-.97-.22s-.48-.35-.66-.59l.46-.37c.16.2.34.36.54.47s.43.16.69.16.48-.06.63-.18.23-.28.23-.5c0-.16-.05-.3-.16-.41-.1-.12-.29-.2-.56-.24l-.33-.05c-.19-.03-.37-.07-.53-.12-.16-.06-.3-.13-.42-.22-.12-.1-.21-.21-.28-.35-.06-.14-.1-.3-.1-.5s.04-.38.11-.53c.07-.15.18-.28.3-.38.13-.1.29-.18.47-.22.18-.05.38-.08.58-.08.34,0,.62.06.84.18.23.12.43.28.6.49l-.42.38c-.09-.13-.22-.24-.4-.34-.18-.11-.4-.16-.66-.16s-.47.06-.61.18c-.13.11-.2.27-.2.46s.07.35.2.44c.14.09.34.16.59.2l.32.05c.46.07.78.2.98.4.19.19.29.45.29.76,0,.4-.14.71-.41.94s-.65.34-1.12.34h0Z"/>
    <g>
      <path class="st0" d="M25.21,24.59c.23.29.34.62.34.99,0,.34-.08.63-.25.89s-.4.45-.72.6c-.31.14-.68.22-1.11.22h-2.71v-6.28h2.59c.43,0,.79.07,1.1.21s.54.33.7.58.24.53.24.84c0,.37-.1.67-.29.92s-.45.42-.78.52c.35.07.65.24.87.53,0,0,.02-.02.02-.02ZM22.04,23.59h1.15c.3,0,.53-.07.69-.2s.24-.33.24-.58-.08-.45-.24-.58c-.16-.14-.39-.21-.69-.21h-1.15v1.57ZM24.02,26.04c.17-.14.26-.35.26-.61s-.09-.48-.27-.63-.42-.23-.73-.23h-1.24v1.69h1.27c.31,0,.54-.07.72-.22,0,0-.01,0-.01,0Z"/>
      <path class="st0" d="M27.82,22.02v1.57h2.12v1h-2.12v1.67h2.39v1.03h-3.65v-6.29h3.65v1.03h-2.39Z"/>
      <path class="st0" d="M32.34,27.12c-.35-.15-.63-.37-.83-.65-.2-.28-.31-.62-.31-1h1.35c.02.26.11.46.27.61.17.15.39.23.68.23s.52-.07.69-.21.25-.33.25-.55c0-.19-.06-.34-.17-.46-.11-.12-.26-.21-.43-.28s-.41-.15-.71-.23c-.41-.12-.74-.24-.99-.36-.26-.12-.47-.29-.66-.53-.18-.24-.27-.55-.27-.95,0-.37.09-.7.28-.97.19-.28.45-.49.78-.63.34-.15.72-.22,1.15-.22.65,0,1.17.16,1.58.47.4.31.63.75.67,1.32h-1.39c0-.22-.1-.39-.27-.54-.17-.14-.4-.21-.68-.21-.25,0-.44.06-.59.19-.15.13-.22.31-.22.55,0,.17.06.31.17.42.11.11.25.2.41.27s.4.15.7.24c.41.12.74.24,1,.36s.48.3.67.54c.19.24.28.55.28.94,0,.34-.09.65-.26.94s-.43.52-.77.69-.73.26-1.2.26c-.44,0-.83-.08-1.18-.23h0Z"/>
      <path class="st0" d="M41.11,21v1.02h-1.67v5.26h-1.26v-5.26h-1.67v-1.02h4.61-.01Z"/>
      <path class="st0" d="M48.05,21v1.02h-2.62v1.61h2.01v1h-2.01v2.66h-1.26v-6.28h3.88,0Z"/>
      <path class="st0" d="M50.18,21v3.89c0,.43.11.75.33.98s.53.34.94.34.72-.11.95-.34c.22-.22.33-.55.33-.98v-3.89h1.27v3.88c0,.53-.12.99-.35,1.35s-.54.65-.93.83c-.39.19-.82.28-1.29.28s-.89-.09-1.27-.28-.68-.46-.9-.83-.33-.82-.33-1.35v-3.88h1.26,0Z"/>
      <path class="st0" d="M59.49,21v1.02h-1.67v5.26h-1.26v-5.26h-1.67v-1.02h4.61-.01Z"/>
      <path class="st0" d="M61.64,21v3.89c0,.43.11.75.33.98s.53.34.94.34.72-.11.95-.34c.22-.22.33-.55.33-.98v-3.89h1.27v3.88c0,.53-.12.99-.35,1.35s-.54.65-.93.83c-.39.19-.82.28-1.29.28s-.89-.09-1.27-.28-.68-.46-.9-.83-.33-.82-.33-1.35v-3.88h1.26,0Z"/>
      <path class="st0" d="M69.92,27.28l-1.39-2.45h-.59v2.45h-1.26v-6.28h2.36c.49,0,.9.09,1.24.26s.6.4.77.69.26.62.26.98c0,.41-.12.79-.36,1.12s-.6.56-1.07.69l1.5,2.55h-1.46ZM67.94,23.89h1.05c.34,0,.6-.08.77-.25s.25-.39.25-.69-.08-.51-.25-.67-.42-.24-.77-.24h-1.05v1.85Z"/>
      <path class="st0" d="M73.7,22.02v1.57h2.12v1h-2.12v1.67h2.39v1.03h-3.65v-6.29h3.65v1.03h-2.39Z"/>
      <path class="st0" d="M78.22,27.12c-.35-.15-.63-.37-.83-.65-.2-.28-.31-.62-.31-1h1.35c.02.26.11.46.27.61.17.15.39.23.68.23s.52-.07.69-.21c.17-.14.25-.33.25-.55,0-.19-.06-.34-.17-.46-.11-.12-.26-.21-.43-.28s-.41-.15-.71-.23c-.41-.12-.74-.24-.99-.36-.26-.12-.47-.29-.66-.53-.18-.24-.27-.55-.27-.95,0-.37.09-.7.28-.97.19-.28.45-.49.78-.63.34-.15.72-.22,1.15-.22.65,0,1.17.16,1.58.47.4.31.63.75.67,1.32h-1.39c-.01-.22-.1-.39-.27-.54-.17-.14-.4-.21-.68-.21-.25,0-.44.06-.59.19-.15.13-.22.31-.22.55,0,.17.06.31.17.42s.25.2.41.27.4.15.7.24c.41.12.74.24,1,.36s.48.3.67.54c.19.24.28.55.28.94,0,.34-.09.65-.26.94s-.43.52-.77.69-.73.26-1.2.26c-.44,0-.83-.08-1.18-.23h0Z"/>
      <path class="st0" d="M89.29,24.59c.23.29.34.62.34.99,0,.34-.08.63-.25.89s-.4.45-.72.6c-.31.14-.68.22-1.11.22h-2.71v-6.28h2.59c.43,0,.79.07,1.1.21s.54.33.7.58c.16.25.24.53.24.84,0,.37-.1.67-.29.92s-.45.42-.78.52c.35.07.65.24.87.53l.02-.02h0ZM86.12,23.59h1.15c.3,0,.53-.07.69-.2s.24-.33.24-.58-.08-.45-.24-.58c-.16-.14-.39-.21-.69-.21h-1.15v1.57ZM88.1,26.04c.17-.14.26-.35.26-.61s-.09-.48-.27-.63-.42-.23-.73-.23h-1.24v1.69h1.27c.31,0,.54-.07.72-.22,0,0-.01,0-.01,0Z"/>
      <path class="st0" d="M93.88,27.28l-1.39-2.45h-.59v2.45h-1.26v-6.28h2.36c.49,0,.9.09,1.24.26s.6.4.77.69.26.62.26.98c0,.41-.12.79-.36,1.12s-.6.56-1.07.69l1.5,2.55h-1.46ZM91.9,23.89h1.05c.34,0,.6-.08.77-.25s.25-.39.25-.69-.08-.51-.25-.67-.42-.24-.77-.24h-1.05v1.85Z"/>
      <path class="st0" d="M97.71,26.93c-.49-.28-.88-.66-1.17-1.15s-.43-1.04-.43-1.66.14-1.16.43-1.65.68-.87,1.17-1.15c.49-.28,1.03-.41,1.62-.41s1.14.14,1.62.41c.49.28.88.66,1.16,1.15.29.49.43,1.04.43,1.65s-.14,1.17-.43,1.66c-.28.49-.67.87-1.17,1.15-.49.28-1.03.41-1.62.41s-1.13-.14-1.62-.41h0ZM100.33,25.96c.29-.17.51-.42.67-.73.16-.32.24-.69.24-1.11s-.08-.79-.24-1.1c-.16-.31-.39-.56-.67-.72s-.62-.25-1-.25-.71.08-1,.25-.52.41-.68.72c-.16.32-.24.68-.24,1.1s.08.79.24,1.11c.16.32.39.56.68.73s.63.26,1,.26.71-.09,1-.26Z"/>
      <path class="st0" d="M107.02,27.28l-2.29-2.8v2.8h-1.26v-6.28h1.26v2.82l2.29-2.82h1.52l-2.59,3.11,2.66,3.17h-1.59Z"/>
      <path class="st0" d="M110.7,22.02v1.57h2.12v1h-2.12v1.67h2.39v1.03h-3.65v-6.29h3.65v1.03h-2.39Z"/>
      <path class="st0" d="M117.47,27.28l-1.39-2.45h-.59v2.45h-1.26v-6.28h2.36c.49,0,.9.09,1.24.26s.6.4.77.69.26.62.26.98c0,.41-.12.79-.36,1.12s-.6.56-1.07.69l1.5,2.55h-1.46ZM115.49,23.89h1.05c.34,0,.6-.08.76-.25s.25-.39.25-.69-.08-.51-.25-.67-.42-.24-.76-.24h-1.05v1.85Z"/>
    </g>
    <g>
      <path class="st0" d="M56.58,32.76v.51h-2.11v1.64h1.71v.51h-1.71v2.19h-.63v-4.85s2.74,0,2.74,0Z"/>
      <path class="st0" d="M59.34,35.19l1.49,2.42h-.72l-1.16-1.89-1.11,1.89h-.7l1.48-2.42-1.49-2.43h.71l1.17,1.9,1.11-1.9h.71l-1.5,2.43s0,0,.01,0Z"/>
      <path class="st0" d="M64.17,33.27v1.62h1.77v.52h-1.77v1.67h1.98v.52h-2.61v-4.86h2.61v.52h-1.98Z"/>
      <path class="st0" d="M72.03,32.79v4.82h-.63v-3.59l-1.6,3.59h-.45l-1.61-3.6v3.6h-.63v-4.82h.68l1.78,3.98,1.78-3.98s.68,0,.68,0Z"/>
      <path class="st0" d="M75.93,35.18c-.28.27-.7.4-1.26.4h-.93v2.03h-.63v-4.85h1.57c.55,0,.96.13,1.25.4s.43.61.43,1.02-.14.74-.41,1.01h-.02ZM75.45,34.83c.17-.15.25-.37.25-.65,0-.6-.34-.9-1.03-.9h-.93v1.78h.93c.35,0,.61-.08.78-.23Z"/>
      <path class="st0" d="M77.77,32.76v4.85h-.63v-4.85h.63Z"/>
      <path class="st0" d="M81.4,37.61l-1.16-1.98h-.77v1.98h-.63v-4.85h1.57c.37,0,.68.06.93.19s.44.3.57.51.19.46.19.73c0,.33-.1.63-.29.89s-.48.42-.87.51l1.22,2.03h-.76ZM79.48,35.12h.93c.34,0,.6-.08.77-.25s.26-.4.26-.68-.08-.51-.25-.67-.43-.24-.78-.24h-.93v1.84Z"/>
      <path class="st0" d="M83.72,33.27v1.62h1.77v.52h-1.77v1.67h1.98v.52h-2.61v-4.86h2.61v.52h-1.98Z"/>
    </g>
    <g>
      <path class="st0" d="M166.34,19.38h-2.58v4.25h-1.85v-4.25h-6.79v-.85l7.3-9.21h1.35v8.48h2.58v1.57h-.01ZM161.91,13.71l.18-1.61h-.06l-.75,1.31-2.98,3.61-1.07.95,1.51-.16h3.16v-4.09h.01Z"/>
      <path class="st0" d="M167.75,22.6c0-.39.12-.7.37-.93s.57-.34.98-.34.73.11.98.34.37.54.37.93c0,.36-.12.67-.37.91s-.57.36-.98.36-.73-.12-.98-.36-.37-.54-.37-.91Z"/>
      <path class="st0" d="M172.39,16.58c0-2.35.43-4.16,1.29-5.42s2.13-1.89,3.81-1.89c1.77,0,3.07.62,3.89,1.87.82,1.25,1.23,3.06,1.23,5.44s-.44,4.14-1.31,5.41-2.15,1.9-3.83,1.9c-.89,0-1.65-.17-2.29-.52s-1.16-.84-1.57-1.48-.72-1.41-.92-2.31-.3-1.9-.3-3h0ZM174.4,16.58c0,.83.06,1.59.18,2.28s.3,1.3.55,1.82c.25.51.56.92.96,1.21.39.29.86.44,1.4.44,1.08,0,1.86-.47,2.36-1.42s.75-2.39.75-4.32c0-.83-.05-1.59-.16-2.28-.11-.7-.28-1.3-.53-1.82-.25-.51-.57-.92-.96-1.21-.4-.29-.88-.44-1.45-.44-1.07,0-1.86.48-2.35,1.44s-.74,2.4-.74,4.3h0Z"/>
    </g>
  </g>
  <g>
    <path class="st0" d="M161.87,15.17c0-.8.07-2.07.11-2.87h-.09c-.35.72-.74,1.41-1.13,2.14l-2.51,3.85h7.69v1.94h-10.16v-1.7l5.47-8.56h2.96v13.81h-2.34v-8.61Z"/>
    <path class="st0" d="M167.89,22.35c0-.98.7-1.7,1.61-1.7s1.61.72,1.61,1.7-.7,1.68-1.61,1.68-1.61-.72-1.61-1.68Z"/>
    <path class="st0" d="M173.32,22.33c3.83-3.72,6.24-6.15,6.24-8.25,0-1.45-.8-2.38-2.28-2.38-1.07,0-1.95.7-2.69,1.53l-1.39-1.37c1.26-1.36,2.53-2.14,4.41-2.14,2.64,0,4.37,1.67,4.37,4.24s-2.27,4.98-5.03,7.85c.73-.07,1.64-.14,2.32-.14h3.38v2.12h-9.32v-1.45Z"/>
  </g>
</svg>