<?xml version="1.0" encoding="UTF-8"?>
<svg id="Layer_1" xmlns="http://www.w3.org/2000/svg" version="1.1" viewBox="0 0 612 118.97">
  <!-- Generator: Adobe Illustrator 29.5.1, SVG Export Plug-In . SVG Version: 2.1.0 Build 141)  -->
  <defs>
    <style>
      .st0 {
        fill: #fff;
      }
    </style>
  </defs>
  <path class="st0" d="M20.43,0v40.86c3.43-3.56,7.55-6.39,12.09-8.34,4.37-1.8,9.03-2.79,13.76-2.92,10.48-.09,20.49,4.31,27.52,12.09,7.61,8.6,11.63,19.79,11.26,31.27.35,11.42-3.85,22.52-11.67,30.85-6.96,7.91-16.98,12.46-27.51,12.51-4.56.02-9.09-.83-13.34-2.5-4.55-1.95-8.66-4.78-12.09-8.34v8.76H0V0h20.43ZM42.11,48.78c-6.14-.28-12.09,2.16-16.26,6.67-4.26,4.82-6.5,11.09-6.25,17.51-.31,6.56,1.93,12.98,6.25,17.93,4.17,4.51,10.12,6.95,16.26,6.67,6.06.05,11.84-2.53,15.84-7.09,4.38-4.77,6.77-11.03,6.67-17.51.3-6.49-1.95-12.85-6.25-17.72-4.31-4.28-10.18-6.61-16.26-6.46Z"/>
  <path class="st0" d="M158.42,32.1h20.85v82.54h-20.85v-8.76c-3.51,3.47-7.6,6.29-12.09,8.34-4.24,1.71-8.77,2.56-13.34,2.5-10.57.12-20.66-4.46-27.51-12.51-7.89-8.29-12.1-19.42-11.67-30.85-.52-11.5,3.52-22.74,11.26-31.27,6.91-7.94,17-12.37,27.51-12.09,4.75-.12,9.46.88,13.76,2.92,4.54,1.95,8.66,4.78,12.09,8.34v-9.17ZM136.74,48.78c-6-.2-11.79,2.23-15.84,6.67-4.26,4.82-6.5,11.09-6.25,17.51-.24,6.42,2,12.69,6.25,17.51,8.34,8.97,22.37,9.49,31.34,1.15.26-.24.51-.48.76-.74,4.32-4.94,6.57-11.37,6.25-17.93.24-6.42-2-12.69-6.25-17.51-4.28-4.36-10.15-6.77-16.26-6.67Z"/>
  <path class="st0" d="M194.27,32.1h17.93v10.63c1.7-3.63,4.28-6.79,7.5-9.17,3.05-2.15,6.69-3.32,10.42-3.33,2.89.15,5.72.85,8.34,2.08l-6.25,17.93c-1.8-.98-3.79-1.55-5.84-1.67-3.54.26-6.63,2.53-7.92,5.84-2.08,3.75-3.34,11.67-3.34,23.35v37.52h-20.43V32.1h-.42Z"/>
  <path class="st0" d="M322.68,48.78l-17.09,9.59c-2.66-3.01-5.93-5.43-9.59-7.09-3.58-1.41-7.4-2.12-11.26-2.08-6.96-.3-13.74,2.26-18.76,7.09-4.74,4.73-7.31,11.23-7.09,17.93-.22,6.45,2.36,12.69,7.09,17.09,11.96,9.92,29.62,8.63,40.02-2.92l16.26,11.26c-8.76,11.67-21.26,17.09-37.52,17.09-14.59,0-25.85-4.17-34.18-12.92-8-7.94-12.5-18.74-12.51-30.02,0-7.74,2.02-15.36,5.84-22.1,4.04-6.68,9.8-12.15,16.68-15.84,7.45-3.93,15.76-5.93,24.18-5.84,7.66-.12,15.24,1.59,22.1,5,6.53,2.91,12.04,7.7,15.84,13.76Z"/>
  <path class="st0" d="M333.1,0h20.43v40.44c3.63-3.21,7.7-5.88,12.09-7.92,3.97-1.63,8.22-2.48,12.51-2.5,7.78-.11,15.29,2.89,20.85,8.34,5,5,7.09,12.09,7.09,21.68v54.61h-20.43v-36.27c.21-6.56-.2-13.12-1.25-19.59-.55-2.98-2.18-5.66-4.59-7.5-2.42-1.75-5.36-2.63-8.34-2.5-4.03-.15-7.95,1.36-10.84,4.17-3.04,3.14-5.2,7.02-6.25,11.26-.67,5.67-.95,11.38-.83,17.09v33.35h-20.43V0h0Z"/>
  <path class="st0" d="M480.68,32.1h20.85v82.54h-20.85v-8.76c-3.51,3.47-7.6,6.29-12.09,8.34-4.24,1.71-8.77,2.56-13.34,2.5-10.57.12-20.66-4.46-27.52-12.51-7.89-8.29-12.1-19.42-11.67-30.85-.52-11.5,3.52-22.74,11.26-31.27,6.91-7.94,17-12.37,27.51-12.09,4.75-.12,9.46.88,13.76,2.92,4.55,1.95,8.65,4.78,12.09,8.34v-9.17h0ZM459,48.78c-6-.2-11.79,2.23-15.84,6.67-4.26,4.82-6.5,11.09-6.25,17.51-.24,6.42,2,12.69,6.25,17.51,8.34,8.97,22.37,9.49,31.34,1.15.26-.24.51-.48.76-.74,4.32-4.94,6.57-11.37,6.25-17.93.24-6.42-2-12.69-6.25-17.51-4.37-4.22-10.19-6.61-16.26-6.67h0Z"/>
  <path class="st0" d="M516.95,32.1h17.93v10.63c1.7-3.63,4.28-6.79,7.5-9.17,3.05-2.15,6.69-3.32,10.42-3.33,2.89.15,5.72.85,8.34,2.08l-6.25,17.93c-1.8-.98-3.79-1.55-5.84-1.67-3.54.26-6.63,2.53-7.92,5.84-2.08,3.75-3.34,11.67-3.34,23.35v37.52h-20.43V32.1h-.42Z"/>
  <path class="st0" d="M579.07,1.67h20.84v30.43h12.09v17.93h-12.09v64.62h-20.84V49.61h-10.42v-17.51h10.42V1.67Z"/>
</svg>