<svg version="1.1" id="Plus500-logo" xmlns="http://www.w3.org/2000/svg" x="0" y="0" viewBox="0 0 688.82 164.41" style="enable-background:new 0 0 688.82 164.41" xml:space="preserve"><style>.st0{fill:#ffffff}</style><g id="Plus500_00000026870260272266802130000001470264779558710681_"><path id="P_00000135681401791613690460000001928530497111714442_" class="st0" d="M83.62 56.69H0v107.72h36.85v-39.69h46.77c10.18 0 18.43-8.25 18.43-18.43V75.12c0-10.18-8.25-18.43-18.43-18.43zM65.2 103.46c0 2.35-1.9 4.25-4.25 4.25h-24.1V73.7h24.09c2.35 0 4.25 1.9 4.25 4.25v25.51z"/><path id="l_00000054229906877458561280000010553392246905093015_" class="st0" d="M113.39 56.69v77.95c0 12.48 6.46 23.45 16.22 29.76h20.63V56.69h-36.85z"/><path id="u_00000025413200036422493440000014944522440109756843_" class="st0" d="M223.94 82.2v60.94c0 2.35-1.9 4.25-4.25 4.25h-17.01c-2.35 0-4.25-1.9-4.25-4.25V82.2h-36.85v63.78c0 10.18 8.25 18.43 18.43 18.43h80.79v-82.2h-36.86z"/><path id="s_00000078759662107464118320000011791701653411697561_" class="st0" d="M290.55 82.2c-10.18 0-18.43 8.25-18.43 18.43v19.84c0 10.18 8.25 18.43 18.43 18.43h34.02c2.35 0 4.25 1.9 4.25 4.25v2.83c0 2.35-1.9 4.25-4.25 4.25h-49.61v14.17h69.45c10.18 0 18.43-8.25 18.43-18.43v-19.84c0-10.18-8.25-18.43-18.43-18.43h-34.02c-2.35 0-4.25-1.9-4.25-4.25s1.9-4.25 4.25-4.25h46.77v-17h-66.61z"/><path id="_x2B__00000154397088118945227000000002990738498182774671_" class="st0" d="M357.17 65.2h-31.19V48.19h-22.67V17.01h22.67V0h31.19v17.01h22.67v31.18h-22.67z"/><path id="_x35__00000132077945927715009150000009517543166970782890_" class="st0" d="M449.29 102.05h-38.27V82.2h51.02v-17h-87.87v53.86h52.44c2.35 0 4.25 1.9 4.25 4.25v19.84c0 2.35-1.9 4.25-4.25 4.25h-52.44v17.01h75.12c10.18 0 18.43-8.25 18.43-18.43v-25.51c0-10.17-8.25-18.42-18.43-18.42z"/><path id="_x30__00000135667841250177742790000007709732142771567489_" class="st0" d="M559.84 65.2h-62.36c-10.18 0-18.43 8.25-18.43 18.43v62.36c0 10.18 8.25 18.43 18.43 18.43h62.36c10.18 0 18.43-8.25 18.43-18.43V83.62c0-10.17-8.25-18.42-18.43-18.42zm-18.42 77.95c0 2.35-1.9 4.25-4.25 4.25h-17.01c-2.35 0-4.25-1.9-4.25-4.25V86.46c0-2.35 1.9-4.25 4.25-4.25h17.01c2.35 0 4.25 1.9 4.25 4.25v56.69z"/><path id="_x30__00000091012129236317582350000009617094592311728541_" class="st0" d="M670.39 65.2h-62.36c-10.18 0-18.43 8.25-18.43 18.43v62.36c0 10.18 8.25 18.43 18.43 18.43h62.36c10.18 0 18.43-8.25 18.43-18.43V83.62c0-10.17-8.25-18.42-18.43-18.42zm-18.42 77.95c0 2.35-1.9 4.25-4.25 4.25h-17.01c-2.35 0-4.25-1.9-4.25-4.25V86.46c0-2.35 1.9-4.25 4.25-4.25h17.01c2.35 0 4.25 1.9 4.25 4.25v56.69z"/></g></svg>